<svg xmlns="http://www.w3.org/2000/svg" viewBox="0 0 250 250"><defs><style>.cls-1{fill:#2787df}.cls-2{fill:#206baa}.cls-3{fill:#fff}.cls-4{fill:#efefef}.cls-5{fill:#ebb706}.cls-6{fill:#e4a625}.cls-7{fill:#9a9a9a}</style></defs><g id="Layer_2" data-name="Layer 2"><path d="M59.3 50H191v168.4H59.2z" class="cls-1"/><path d="M58.8 50h70v168.4H59z" class="cls-2"/><path d="M69 58.6h112v148.6H69z" class="cls-3"/><path d="M69 58.6h59.7v148.6H69z" class="cls-4"/><path d="M162.3 62.7l-6-7a9.8 9.8 0 0 0-8-3.7h-10a12 12 0 0 0 1-3.2v-5.4c0-6-5.4-10.8-11.4-10.8s-11.6 5-11.6 10.8v5.4c0 .7 2 3.2 2 3.2h-11.2a9.5 9.5 0 0 0-7.8 3.4l-6 7.6c-.8 1-.3 3 1 3h67c1.2 0 1.7-2.3 1-3.3zm-33.6-16.2a4.4 4.4 0 0 1-4.3-4.3 4.3 4.3 0 0 1 4.3-4.4 4.2 4.2 0 0 1 4.4 4.4 4.3 4.3 0 0 1-4.3 4.3z" class="cls-5"/><path d="M128.8 46.5a4.7 4.7 0 0 1-4.4-4.3A4.3 4.3 0 0 1 129 38l-.5-5.4c-7.5 0-12 5.5-12 10.8v5.4c0 .6 2 3.2 2 3.2h-11.3a9.5 9.5 0 0 0-7.8 3.4l-6 7.6c-.8 1-.3 3 1 3h34.4z" class="cls-6"/><path d="M82.4 87.4H90V95h-7.6zM98.7 89H165v4H98.8zm-16.3 16H90v7.8h-7.6zm16.3 1.5H165v4.3H98.8zm-16.3 16.3H90v7.7h-7.6zm16.3 1.4H165v4.3H98.8zm-16.3 16.2H90v7.7h-7.6zm16.3 1.6H165v4.2H98.8zm-16.3 16H90v7.8h-7.6zm16.3 1.6H165v4.3H98.8zm-16.3 16.2H90v7.7h-7.6zm16.3 1.5H165v4.3H98.8z" class="cls-7"/></g></svg>